<?xml version="1.0" standalone="no"?>
<!DOCTYPE svg PUBLIC "-//W3C//DTD SVG 20010904//EN"
 "http://www.w3.org/TR/2001/REC-SVG-20010904/DTD/svg10.dtd">
<svg version="1.0" xmlns="http://www.w3.org/2000/svg"
 width="200.000000pt" height="200.000000pt" viewBox="0 0 200.000000 200.000000"
 preserveAspectRatio="xMidYMid meet">

<g transform="translate(0.000000,200.000000) scale(0.100000,-0.100000)"
fill="#000000" stroke="none">
<path d="M439 1843 c-6 -16 -16 -56 -22 -90 -9 -50 -8 -72 5 -118 l16 -57 -29
-46 c-49 -77 -71 -149 -76 -248 -16 -273 103 -460 336 -528 30 -9 69 -16 87
-16 61 0 65 -6 38 -57 -13 -25 -24 -61 -24 -78 0 -29 -5 -35 -40 -49 -53 -21
-125 -20 -175 3 -22 10 -61 42 -88 72 -93 105 -120 129 -157 140 -48 14 -93 5
-88 -19 2 -9 20 -26 41 -38 39 -21 75 -72 127 -175 36 -70 78 -101 170 -125
46 -12 83 -14 132 -9 l69 6 -3 -118 -3 -118 -32 -15 c-18 -8 -33 -18 -33 -22
0 -5 164 -8 365 -8 201 0 365 3 365 8 0 4 -15 14 -33 22 l-32 15 -5 230 c-5
228 -5 230 -32 276 -31 52 -27 59 36 59 82 0 205 55 284 125 160 144 190 466
63 667 l-29 46 15 53 c13 43 14 66 5 119 -16 102 -26 120 -65 120 -53 0 -137
-28 -210 -72 l-68 -40 -52 14 c-71 18 -401 18 -483 -1 l-62 -13 -53 36 c-59
40 -161 76 -215 76 -28 0 -36 -5 -45 -27z"/>
</g>
</svg>
