<?xml version="1.0" standalone="no"?>
<!DOCTYPE svg PUBLIC "-//W3C//DTD SVG 20010904//EN"
 "http://www.w3.org/TR/2001/REC-SVG-20010904/DTD/svg10.dtd">
<svg version="1.0" xmlns="http://www.w3.org/2000/svg"
 width="640.000000pt" height="640.000000pt" viewBox="0 0 640.000000 640.000000"
 preserveAspectRatio="xMidYMid meet">

<g transform="translate(0.000000,640.000000) scale(0.100000,-0.100000)"
fill="#000000" stroke="none">
<path d="M2404 6378 c-10 -11 -48 -41 -84 -65 -36 -24 -104 -74 -152 -111 -47
-37 -114 -87 -148 -112 -76 -54 -196 -167 -188 -175 8 -8 60 19 77 39 8 9 19
16 26 16 7 0 26 12 43 28 55 50 86 77 103 87 9 6 34 25 55 42 104 87 163 133
171 133 4 0 29 20 54 44 47 45 88 72 102 68 4 -1 15 4 23 13 14 13 11 15 -24
15 -27 0 -45 -6 -58 -22z"/>
<path d="M2679 6308 c-52 -51 -112 -115 -134 -142 -22 -27 -59 -70 -82 -95
-24 -25 -43 -49 -43 -53 0 -8 -23 -37 -72 -90 -16 -17 -28 -35 -28 -41 0 -6
-3 -8 -6 -5 -5 6 61 138 75 148 11 8 32 62 27 67 -6 7 -36 -22 -36 -35 0 -5
-8 -16 -17 -25 -10 -9 -29 -37 -43 -64 -14 -26 -28 -50 -31 -53 -10 -9 -95
-144 -112 -179 -9 -19 -17 -40 -17 -48 0 -7 -4 -13 -10 -13 -8 0 -50 -68 -111
-181 -15 -27 -35 -61 -45 -76 -10 -15 -25 -41 -34 -58 -25 -47 -57 -100 -138
-235 -103 -172 -133 -224 -177 -305 -22 -38 -41 -72 -44 -75 -3 -3 -25 -43
-49 -90 -23 -47 -52 -101 -63 -120 l-21 -35 5 36 c3 20 15 57 26 82 12 25 21
54 21 64 0 40 -70 -144 -71 -187 -1 -35 -3 -40 -8 -20 -6 22 -8 23 -14 7 -4
-10 -7 -32 -7 -47 0 -16 -5 -42 -11 -57 -6 -15 -15 -37 -20 -48 -4 -11 -11
-31 -14 -44 -5 -16 -10 -20 -15 -12 -11 19 -183 -329 -219 -444 -29 -91 -68
-197 -91 -250 -5 -11 -19 -45 -30 -75 -12 -30 -30 -75 -40 -100 -10 -25 -29
-90 -43 -145 -13 -55 -31 -117 -40 -137 -38 -85 28 -15 144 152 173 249 171
247 164 149 -7 -96 -11 -122 -35 -254 -24 -134 -25 -194 -4 -467 11 -151 13
-213 5 -216 -6 -2 -11 -9 -11 -15 0 -8 3 -8 11 0 6 6 17 9 23 7 6 -2 24 19 39
48 15 29 45 85 67 123 51 89 73 134 79 164 7 29 31 40 31 14 0 -10 -10 -49
-21 -88 -11 -38 -22 -90 -26 -115 l-5 -45 82 85 c45 47 102 115 127 152 43 65
94 118 114 118 5 0 9 -15 9 -32 1 -43 33 -135 55 -156 16 -16 17 -16 11 4 -13
45 -36 160 -36 186 0 16 14 44 38 72 20 25 44 55 53 68 10 13 20 20 24 16 4
-3 -1 -122 -9 -263 -15 -230 -15 -258 -1 -278 14 -20 15 -16 16 58 0 44 2 105
4 135 2 30 6 135 9 233 5 151 9 184 26 218 11 21 25 39 30 39 12 0 13 -85 3
-196 -6 -66 -8 -73 -14 -44 -5 25 -7 11 -9 -50 -3 -94 -6 -158 -18 -330 -8
-111 0 -186 18 -175 10 6 17 -23 30 -126 5 -42 18 -107 28 -145 22 -80 72
-194 84 -194 11 0 11 3 -11 57 -10 26 -28 104 -40 171 -12 68 -26 135 -32 149
-5 13 -9 36 -10 51 0 24 -1 25 -8 7 -7 -17 -9 -13 -16 20 -4 22 -7 67 -7 100
0 104 32 397 53 476 5 20 11 85 13 145 3 82 3 93 -3 44 -4 -36 -13 -76 -19
-90 -10 -21 -12 -8 -7 74 3 76 9 104 22 119 10 10 27 37 38 60 41 84 54 50 51
-131 -1 -62 1 -112 4 -112 3 0 10 15 17 33 6 17 43 116 82 219 39 103 71 193
71 200 0 7 5 5 11 -5 11 -19 8 -194 -7 -393 -4 -58 -3 -98 4 -110 10 -18 11
-17 21 9 6 16 11 43 11 60 0 18 5 59 10 92 6 33 18 100 26 150 8 49 16 90 17
91 1 1 11 4 23 8 18 6 20 2 19 -26 -1 -18 -5 -46 -9 -63 -6 -29 -6 -28 10 5 9
19 20 42 24 50 4 8 20 17 36 20 35 7 115 -21 129 -45 5 -9 27 -35 47 -57 47
-51 62 -95 56 -166 -4 -43 -10 -59 -29 -74 -13 -10 -35 -28 -49 -39 -18 -16
-33 -20 -62 -16 -21 3 -38 2 -38 -3 0 -11 59 -52 110 -77 147 -70 220 -79 366
-46 165 38 218 72 295 189 47 72 76 148 85 219 3 27 12 72 20 99 11 39 11 51
2 57 -7 5 -9 11 -5 15 4 4 1 14 -6 23 -19 24 -44 85 -40 97 2 6 15 9 28 6 14
-2 25 0 25 7 0 42 -309 331 -354 331 -21 0 -46 11 -42 19 2 3 -10 7 -27 7 -38
2 -188 42 -201 55 -5 5 -5 13 1 21 6 7 39 80 72 163 34 82 88 192 120 245 32
52 95 170 140 262 54 111 106 199 154 265 41 54 88 118 105 142 19 27 32 38
32 28 0 -9 -33 -97 -73 -194 -41 -98 -82 -214 -91 -258 -10 -44 -38 -161 -62
-261 -24 -99 -44 -189 -44 -199 0 -19 0 -19 13 0 7 11 23 45 36 75 13 30 30
69 38 87 7 18 18 35 23 38 6 3 22 30 36 58 14 29 45 88 70 132 24 44 64 123
90 175 67 139 128 246 277 485 28 44 71 123 98 175 38 77 189 298 189 278 0
-3 -9 -50 -19 -104 -11 -54 -34 -173 -51 -264 -17 -91 -42 -219 -55 -285 -50
-254 -55 -288 -55 -358 0 -73 -25 -178 -53 -220 -8 -12 -17 -40 -20 -62 -4
-22 -14 -65 -22 -95 -9 -30 -20 -73 -24 -95 -5 -22 -16 -66 -25 -97 -23 -83
-36 -162 -41 -248 -6 -96 -10 -130 -30 -215 -24 -108 -44 -218 -44 -240 0 -11
7 5 14 35 7 30 13 57 13 60 -1 3 1 12 5 20 8 22 43 181 62 290 29 161 95 422
121 479 13 29 24 60 24 67 0 8 7 14 15 14 11 0 13 7 9 29 -6 27 35 172 74 260
8 19 31 82 52 140 20 58 42 117 47 131 6 14 16 43 23 65 7 22 21 58 31 80 10
22 32 78 49 125 18 47 39 101 47 120 9 19 24 55 35 80 11 25 24 53 29 62 5 10
9 24 9 32 0 16 10 40 39 96 18 34 19 34 19 7 0 -15 -4 -27 -9 -27 -5 0 -9 -11
-9 -25 0 -14 -10 -45 -22 -68 -11 -23 -27 -62 -34 -87 -6 -25 -23 -76 -37
-115 -58 -167 -87 -266 -87 -298 0 -20 -5 -48 -11 -64 -12 -32 -54 -189 -99
-373 -17 -69 -42 -160 -56 -202 -13 -43 -24 -85 -24 -94 0 -8 -13 -55 -30
-102 -44 -128 -81 -304 -85 -407 -2 -49 -10 -116 -19 -148 -20 -73 -21 -108
-2 -101 10 4 14 -31 20 -183 6 -158 29 -373 36 -338 1 6 1 55 -1 110 -11 301
3 589 31 644 4 9 14 36 21 61 7 25 24 64 38 87 32 52 60 56 79 13 17 -38 26
-38 46 3 12 25 16 28 17 12 1 -24 14 13 34 100 7 33 21 86 29 118 9 32 17 72
17 90 2 30 2 29 8 -8 l6 -40 17 30 17 30 1 -38 c0 -23 -4 -36 -10 -32 -6 4
-10 -9 -11 -32 -2 -68 -6 -97 -24 -158 -10 -33 -28 -100 -41 -150 -13 -49 -35
-121 -48 -160 -29 -85 -70 -230 -87 -305 -7 -30 -24 -91 -40 -135 -48 -139
-60 -194 -64 -277 -2 -44 -8 -85 -14 -91 -14 -14 -14 -127 -1 -220 12 -82 29
-125 42 -105 5 10 8 8 8 -4 0 -10 4 -18 9 -18 12 0 22 28 11 32 -5 2 -13 33
-18 70 -4 37 -5 65 -1 62 4 -2 10 0 14 6 8 12 -4 52 -13 46 -4 -2 -6 24 -4 57
2 34 3 108 4 165 0 56 4 102 9 102 5 0 9 15 9 33 0 34 23 111 47 156 7 15 13
31 13 37 0 15 23 24 37 16 6 -4 14 -42 18 -84 5 -51 12 -79 21 -82 8 -3 14 1
14 11 0 9 8 25 17 36 12 12 18 35 18 67 0 31 4 45 10 39 16 -16 23 -10 28 24
7 44 44 151 73 214 13 28 24 60 24 70 1 24 26 68 33 57 3 -5 -3 -83 -14 -174
-10 -91 -22 -204 -25 -251 -5 -76 -8 -88 -28 -98 -29 -16 -139 -231 -156 -305
-11 -51 5 -35 41 40 17 35 35 67 40 70 5 3 9 14 9 25 0 10 4 19 10 19 5 0 12
11 16 25 3 14 10 25 14 25 16 0 17 -40 3 -120 -8 -45 -12 -84 -10 -86 5 -5 32
93 42 149 3 21 10 35 16 32 20 -13 4 -186 -27 -305 -30 -110 -32 -120 -25
-120 3 0 17 18 31 40 14 22 28 40 31 40 11 0 68 96 133 225 l41 80 65 11 c63
11 66 10 88 -13 25 -27 28 -55 8 -72 -8 -7 -17 -27 -20 -45 -3 -18 -22 -58
-41 -90 -51 -85 -87 -182 -80 -215 6 -27 8 -28 56 -23 49 5 52 3 94 -38 57
-56 89 -129 82 -189 -4 -38 -13 -53 -55 -93 -33 -31 -59 -48 -76 -48 -14 0
-28 -4 -31 -10 -3 -5 -15 -10 -26 -10 -10 0 -19 -4 -19 -9 0 -5 32 -38 70 -75
96 -90 74 -88 -31 3 -33 28 -39 30 -39 15 0 -11 14 -30 32 -44 17 -14 37 -30
43 -36 17 -17 120 -74 133 -74 23 0 11 17 -24 34 -64 30 -29 28 48 -2 112 -46
167 -56 273 -48 59 5 95 3 99 -3 4 -6 17 -6 36 1 22 7 34 7 44 -1 12 -10 6
-25 -35 -91 -27 -44 -49 -82 -49 -85 0 -3 -21 -38 -46 -78 -101 -156 -111
-175 -117 -235 -3 -24 -19 -70 -35 -102 -47 -94 -26 -98 61 -11 41 40 77 69
80 64 3 -4 -3 -56 -14 -113 -18 -99 -40 -282 -34 -288 9 -10 42 19 84 76 27
37 60 77 73 89 22 21 197 103 219 103 14 0 11 -28 -7 -55 -15 -23 -15 -25 0
-25 21 0 20 -11 -4 -106 -26 -105 -26 -113 6 -83 l26 24 -7 -33 c-9 -43 6 -41
30 5 11 20 33 55 50 77 16 23 28 49 27 58 -7 44 173 248 218 248 9 0 31 17 48
38 17 20 66 62 108 92 95 68 187 153 267 245 34 39 71 78 83 88 22 17 23 17
21 -2 0 -11 -5 -17 -11 -14 -5 4 -7 -1 -3 -10 6 -15 -77 -293 -109 -365 -17
-38 -17 -42 -5 -42 5 0 21 25 35 56 14 30 60 106 103 167 43 62 112 164 155
229 42 64 82 119 87 123 6 3 11 15 11 26 0 17 -3 18 -20 9 -11 -6 -20 -20 -20
-30 0 -11 -5 -20 -10 -20 -6 0 -20 -16 -31 -35 -12 -19 -26 -32 -32 -28 -6 3
-7 1 -3 -5 4 -7 -4 -23 -18 -37 -15 -14 -26 -30 -26 -36 0 -20 -48 -81 -53
-67 -3 7 -6 1 -6 -13 -1 -14 -11 -34 -23 -45 -21 -19 -21 -19 -14 1 5 11 12
34 16 50 4 17 24 73 44 125 26 67 36 104 32 126 -4 21 -1 36 11 50 10 11 23
27 28 36 33 52 102 137 112 137 10 1 13 432 13 2081 l0 2080 -1814 0 -1814 0
-93 -92z m-39 -345 c-11 -17 -11 -17 -6 0 3 10 6 24 7 30 0 9 2 9 5 0 3 -7 0
-20 -6 -30z m3586 -965 c-8 -24 -21 -70 -27 -103 -7 -34 -14 -52 -17 -40 -6
26 16 124 34 152 8 12 14 30 15 40 0 11 3 13 6 6 2 -7 -2 -32 -11 -55z m-730
-145 c-9 -225 -12 -287 -26 -418 -5 -55 -15 -203 -20 -330 -6 -126 -15 -282
-20 -345 -6 -63 -12 -146 -15 -185 -9 -131 -46 -511 -65 -665 -5 -41 -9 -112
-10 -157 0 -46 -4 -83 -10 -83 -5 0 -23 20 -39 44 -93 135 -338 321 -533 405
-43 19 -78 40 -78 47 0 16 40 86 55 96 5 4 10 15 10 25 0 16 40 130 65 188 5
11 25 73 45 139 35 117 108 274 133 283 6 3 12 14 12 25 0 11 16 50 37 86 138
252 202 392 292 643 100 279 147 389 163 389 7 0 8 -64 4 -187z m675 -60 c-8
-15 -10 -15 -11 -2 0 17 10 32 18 25 2 -3 -1 -13 -7 -23z m-14 -60 c-3 -10 -5
-4 -5 12 0 17 2 24 5 18 2 -7 2 -21 0 -30z m-20 -70 c-3 -10 -5 -4 -5 12 0 17
2 24 5 18 2 -7 2 -21 0 -30z m-36 -113 c-18 -39 -21 -42 -21 -18 0 15 4 29 9
33 5 3 13 20 17 38 6 24 9 27 11 12 2 -12 -5 -41 -16 -65z m-46 -152 c-12 -43
-28 -79 -32 -74 -3 3 3 25 12 50 18 48 31 63 20 24z m-81 -245 c-4 -16 -10
-32 -15 -37 -7 -8 -4 17 7 52 7 24 14 11 8 -15z m-2217 -275 c-3 -8 -6 -5 -6
6 -1 11 2 17 5 13 3 -3 4 -12 1 -19z m-1277 -14 c0 -26 -31 -99 -62 -148 -21
-33 -38 -67 -38 -77 0 -10 -4 -21 -10 -24 -13 -8 -13 18 1 108 13 95 25 121
57 134 32 13 52 15 52 7z m2257 -106 c-3 -7 -5 -2 -5 12 0 14 2 19 5 13 2 -7
2 -19 0 -25z m-27 -102 c-20 -106 -83 -296 -99 -296 -11 0 -12 11 -7 53 4 28
8 66 10 82 3 38 17 60 36 60 11 0 18 18 25 60 6 33 17 80 25 105 12 37 16 41
18 21 2 -14 -1 -52 -8 -85z m-153 -78 c-3 -8 -6 -5 -6 6 -1 11 2 17 5 13 3 -3
4 -12 1 -19z m-20 -45 c-3 -10 -5 -4 -5 12 0 17 2 24 5 18 2 -7 2 -21 0 -30z
m-1367 -23 c22 -22 26 -60 8 -78 -31 -31 -124 -7 -134 34 -14 55 82 88 126 44z
m-1071 -90 c0 -9 -4 -8 -9 5 -8 19 -9 19 -9 1 -1 -11 -3 -17 -6 -14 -4 3 -3
18 1 34 6 25 8 26 15 9 4 -11 8 -27 8 -35z m2411 -202 c-12 -10 -16 -19 -10
-23 6 -3 8 -10 5 -15 -3 -5 -1 -19 5 -30 9 -17 8 -20 -10 -20 -18 0 -19 -3 -8
-20 15 -24 10 -29 -39 -41 -62 -14 -83 -12 -83 11 0 11 7 20 15 20 9 0 18 8
21 18 13 38 68 149 93 186 l26 40 3 -55 c3 -45 0 -57 -18 -71z m95 92 c7 -12
-13 -80 -23 -80 -4 0 -6 20 -4 45 4 43 14 56 27 35z m-598 -57 c-3 -10 -5 -4
-5 12 0 17 2 24 5 18 2 -7 2 -21 0 -30z m-1103 -175 c68 -17 27 -32 -81 -30
-97 2 -153 16 -153 39 0 13 171 7 234 -9z m2302 -653 c61 -61 -31 -129 -100
-74 -14 11 -26 30 -26 41 0 58 80 79 126 33z m-589 -228 c10 -16 57 -46 114
-73 26 -12 50 -27 53 -33 4 -6 12 -8 18 -5 7 5 8 2 4 -5 -5 -7 -15 -9 -25 -6
-9 4 -34 9 -55 11 -21 3 -55 13 -75 24 -37 19 -77 73 -66 90 8 14 22 13 32 -3z"/>
<path d="M2015 5953 c-33 -23 -67 -46 -75 -50 -17 -8 -23 -12 -71 -53 -20 -16
-40 -30 -43 -30 -13 0 -116 -81 -116 -90 0 -6 -7 -10 -15 -10 -8 0 -15 -7 -15
-15 0 -8 3 -15 6 -15 12 0 133 59 203 99 73 41 101 50 101 31 0 -17 20 -11 43
13 12 13 39 33 60 45 40 23 44 26 97 71 36 30 35 55 -1 33 -49 -31 -69 -33
-92 -9 l-22 23 -60 -43z"/>
<path d="M1707 5840 c-43 -27 -59 -52 -39 -63 14 -9 54 13 59 33 3 11 12 20
19 20 8 0 14 4 14 8 0 5 10 14 23 20 l22 11 -26 0 c-14 1 -46 -12 -72 -29z"/>
<path d="M1926 5735 c-71 -79 -106 -131 -217 -318 -95 -160 -212 -373 -209
-379 1 -2 -3 -16 -9 -31 -6 -16 -11 -32 -11 -37 0 -5 -6 -10 -12 -13 -7 -2
-10 -7 -7 -11 4 -4 47 44 97 106 107 135 129 158 145 158 7 -1 5 -6 -5 -14
-10 -7 -18 -22 -18 -33 0 -11 -3 -23 -7 -27 -5 -4 -8 -11 -9 -14 0 -4 -6 -20
-13 -37 -27 -69 -51 -135 -74 -210 -15 -44 -33 -98 -41 -120 -14 -40 -13 -55
5 -55 5 0 9 15 9 34 0 18 9 44 19 58 11 13 23 38 27 54 4 16 15 45 26 64 10
19 18 42 18 50 0 8 7 24 15 34 8 11 15 27 15 37 0 9 9 28 20 42 11 14 20 32
20 40 0 21 36 98 42 92 3 -3 3 5 1 17 -3 15 3 30 16 42 12 11 21 29 22 40 0
12 14 41 29 66 54 83 62 102 56 126 -4 13 -12 24 -19 24 -12 0 -37 -44 -37
-67 0 -7 -4 -13 -8 -13 -5 0 -21 -22 -36 -50 -15 -27 -33 -53 -39 -57 -13 -8
-46 -56 -59 -83 -4 -9 -6 -5 -5 12 1 15 3 25 5 23 3 -2 16 19 31 48 67 131
112 197 133 197 15 0 18 4 14 17 -7 17 18 60 87 152 39 50 56 91 39 91 -4 0
-29 -25 -56 -55z m-266 -499 c0 -3 -4 -8 -10 -11 -5 -3 -10 -1 -10 4 0 6 5 11
10 11 6 0 10 -2 10 -4z m-20 -40 c0 -3 -4 -8 -10 -11 -5 -3 -10 -1 -10 4 0 6
5 11 10 11 6 0 10 -2 10 -4z"/>
<path d="M1500 5701 c-27 -20 -106 -70 -187 -120 -56 -35 -130 -91 -119 -91
14 0 86 35 86 42 0 5 15 8 33 8 23 0 28 3 17 10 -12 7 -11 10 5 16 11 5 25 13
32 18 6 6 47 36 92 66 44 30 80 58 81 63 0 11 -13 7 -40 -12z"/>
<path d="M1525 5633 c-24 -7 -67 -34 -61 -40 2 -2 12 0 23 5 10 6 34 17 53 26
34 15 27 19 -15 9z"/>
<path d="M4081 4224 c0 -11 3 -14 6 -6 3 7 2 16 -1 19 -3 4 -6 -2 -5 -13z"/>
<path d="M3045 4080 c3 -5 8 -10 11 -10 2 0 4 5 4 10 0 6 -5 10 -11 10 -5 0
-7 -4 -4 -10z"/>
<path d="M2898 4043 c7 -3 16 -2 19 1 4 3 -2 6 -13 5 -11 0 -14 -3 -6 -6z"/>
<path d="M3672 3540 c0 -14 2 -19 5 -12 2 6 2 18 0 25 -3 6 -5 1 -5 -13z"/>
<path d="M3512 3440 c0 -14 2 -19 5 -12 2 6 2 18 0 25 -3 6 -5 1 -5 -13z"/>
<path d="M3592 3350 c0 -14 2 -19 5 -12 2 6 2 18 0 25 -3 6 -5 1 -5 -13z"/>
<path d="M2241 3024 c0 -11 3 -14 6 -6 3 7 2 16 -1 19 -3 4 -6 -2 -5 -13z"/>
<path d="M3770 3031 c0 -6 5 -13 10 -16 6 -3 10 1 10 9 0 9 -4 16 -10 16 -5 0
-10 -4 -10 -9z"/>
<path d="M3880 2681 c-6 -16 -10 -38 -8 -48 4 -17 5 -17 15 2 16 30 25 75 14
75 -5 0 -14 -13 -21 -29z"/>
<path d="M1918 2535 c-1 -30 0 -55 5 -55 4 0 7 25 7 55 0 71 -7 71 -12 0z"/>
<path d="M980 2063 c-8 -2 -21 -7 -29 -9 -8 -2 -11 -7 -8 -10 8 -8 77 7 77 17
0 10 -16 11 -40 2z"/>
<path d="M4957 1888 c-40 -55 -42 -65 -3 -23 33 37 43 55 32 55 -3 0 -16 -15
-29 -32z"/>
<path d="M2666 1872 c-3 -6 -3 -17 0 -25 6 -16 139 -130 189 -163 l30 -19 -22
30 c-12 17 -31 40 -42 52 -12 12 -26 34 -31 47 -13 36 -112 97 -124 78z"/>
<path d="M2114 1837 c4 -12 -3 -26 -20 -41 -19 -16 -27 -32 -28 -61 -1 -36 1
-40 34 -49 19 -5 38 -14 42 -19 6 -10 -7 -60 -33 -124 -7 -18 -10 -35 -7 -38
8 -8 42 10 88 45 43 33 79 43 99 27 12 -10 13 -9 1 13 -13 24 -68 100 -81 110
-3 3 -16 25 -27 50 -22 46 -79 120 -68 87z"/>
<path d="M2309 1543 c-9 -2 -19 -14 -22 -26 -22 -89 -29 -112 -42 -131 -18
-24 -19 -80 -4 -127 6 -19 13 -40 15 -48 3 -11 12 -7 32 12 32 31 47 35 38 11
-6 -15 -3 -15 21 1 16 10 39 28 54 41 30 29 46 30 72 7 19 -17 20 -17 8 4 -6
12 -11 33 -11 47 0 14 -4 26 -10 26 -11 0 -70 78 -70 93 0 6 9 2 20 -8 28 -25
35 -13 10 18 -31 39 -93 84 -111 80z"/>
<path d="M1780 1514 c0 -14 61 -181 107 -294 22 -52 61 -151 88 -220 26 -69
53 -138 60 -155 7 -16 15 -48 19 -71 3 -23 17 -61 30 -85 14 -24 42 -96 63
-159 l38 -115 -3 -207 -3 -208 130 0 131 0 0 36 c0 24 -4 33 -12 28 -8 -5 -9
-2 -5 11 4 9 2 24 -5 33 -7 8 -12 29 -10 46 1 21 -1 26 -6 13 -16 -37 -144
363 -178 556 -26 152 -33 149 -27 -10 4 -102 3 -153 -4 -153 -6 0 -21 44 -33
98 -35 153 -49 159 -20 9 11 -56 -3 -33 -35 58 -15 44 -36 98 -45 120 -35 84
-194 484 -227 570 -31 83 -53 124 -53 99z"/>
<path d="M3655 1340 c-10 -16 46 -33 98 -31 30 1 39 30 10 32 -61 5 -105 4
-108 -1z"/>
<path d="M238 1313 c6 -2 18 -2 25 0 6 3 1 5 -13 5 -14 0 -19 -2 -12 -5z"/>
<path d="M320 1289 c19 -6 43 -15 52 -20 22 -11 38 -12 38 0 0 8 -21 13 -100
26 -14 3 -9 0 10 -6z"/>
<path d="M5515 1280 c-3 -6 1 -7 9 -4 18 7 21 14 7 14 -6 0 -13 -4 -16 -10z"/>
<path d="M430 1253 c8 -2 29 -11 47 -19 17 -8 39 -14 50 -13 13 0 14 2 3 6 -8
2 -29 11 -47 19 -17 8 -39 14 -50 13 -13 0 -14 -2 -3 -6z"/>
<path d="M2501 1243 c8 -10 16 -20 19 -23 3 -3 30 -36 60 -74 30 -37 69 -75
85 -83 17 -9 39 -26 50 -38 92 -107 111 -125 129 -125 11 0 39 -9 63 -21 31
-15 51 -19 71 -13 15 4 32 6 37 5 6 -2 78 -7 160 -12 83 -5 194 -12 248 -15
68 -5 115 -3 152 6 31 7 58 11 61 7 3 -3 -21 -38 -55 -78 -72 -86 -79 -109
-23 -81 20 11 85 43 144 73 59 30 109 51 113 47 3 -3 -6 -29 -20 -58 -14 -29
-24 -55 -21 -58 11 -10 101 43 151 89 28 25 65 51 84 58 80 26 133 100 84 115
-23 7 -148 0 -243 -14 -41 -6 -106 -14 -145 -17 l-70 -7 50 -6 c43 -4 47 -6
30 -16 -14 -8 -43 -9 -100 -2 -55 7 -103 7 -155 -1 -41 -6 -133 -11 -205 -11
-71 -1 -143 -1 -160 -1 -32 -1 -119 15 -148 26 -12 5 -15 11 -8 19 8 9 -2 15
-34 24 -48 13 -169 111 -220 178 -79 104 -115 128 -115 77 l-1 -28 -34 38
c-36 38 -59 51 -34 20z"/>
<path d="M5485 1240 c-10 -11 -14 -20 -9 -20 5 0 15 9 22 20 7 11 11 20 9 20
-2 0 -12 -9 -22 -20z"/>
<path d="M2201 1155 l2 -70 7 60 c5 34 4 64 -1 70 -5 5 -8 -18 -8 -60z"/>
<path d="M4720 1084 c0 -5 -19 -14 -42 -21 -24 -6 -106 -29 -183 -51 -77 -22
-168 -46 -202 -53 -35 -6 -60 -16 -57 -21 3 -5 13 -6 23 -3 9 4 44 11 79 15
62 8 365 93 393 110 11 7 11 12 1 22 -6 6 -12 8 -12 2z"/>
<path d="M2090 893 c0 -5 5 -15 10 -23 8 -12 10 -11 10 8 0 12 -4 22 -10 22
-5 0 -10 -3 -10 -7z"/>
<path d="M2112 820 c0 -14 2 -19 5 -12 2 6 2 18 0 25 -3 6 -5 1 -5 -13z"/>
<path d="M2052 25 c0 -17 2 -22 5 -12 2 9 2 23 0 30 -3 6 -5 -1 -5 -18z"/>
</g>
</svg>
